<svg width="111" height="84" viewBox="0 0 111 84" fill="none" xmlns="http://www.w3.org/2000/svg">
<path d="M101.75 0H9.25C4.20875 0.185 0.185 4.20875 0 9.25V74C0.185 79.0413 4.20875 83.065 9.25 83.25H101.75C106.791 83.065 110.815 79.0413 111 74V9.25C110.915 6.82385 109.913 4.52021 108.196 2.80361C106.48 1.087 104.176 0.0851251 101.75 0ZM101.75 74H9.25V9.25H101.75V74ZM64.75 64.75V58.9688C64.75 51.2913 49.3025 47.4062 41.625 47.4062C33.9475 47.4062 18.5 51.2913 18.5 58.9688V64.75H64.75ZM41.625 18.5C38.5584 18.5 35.6175 19.7182 33.4491 21.8866C31.2807 24.055 30.0625 26.9959 30.0625 30.0625C30.0625 31.5809 30.3616 33.0845 30.9426 34.4873C31.5237 35.8901 32.3754 37.1647 33.4491 38.2384C35.6175 40.4068 38.5584 41.625 41.625 41.625C43.1434 41.625 44.647 41.3259 46.0498 40.7449C47.4526 40.1638 48.7272 39.3121 49.8009 38.2384C50.8746 37.1647 51.7263 35.8901 52.3074 34.4873C52.8884 33.0845 53.1875 31.5809 53.1875 30.0625C53.1875 28.5441 52.8884 27.0405 52.3074 25.6377C51.7263 24.2349 50.8746 22.9603 49.8009 21.8866C48.7272 20.8129 47.4526 19.9612 46.0498 19.3801C44.647 18.7991 43.1434 18.5 41.625 18.5ZM64.75 18.5V23.125H92.5V18.5H64.75ZM64.75 27.75V32.375H92.5V27.75H64.75ZM64.75 37V41.625H83.25V37H64.75Z" fill="#DED27C"/>
</svg>
